<mxfile host="app.diagrams.net" agent="Mozilla/5.0 (Windows NT 10.0; Win64; x64) AppleWebKit/537.36 (KHTML, like Gecko) Chrome/129.0.0.0 Safari/537.36 Edg/129.0.0.0" version="24.7.16">
  <diagram id="C5RBs43oDa-KdzZeNtuy" name="Page-1">
    <mxGraphModel dx="2362" dy="698" grid="1" gridSize="10" guides="1" tooltips="1" connect="1" arrows="1" fold="1" page="1" pageScale="1" pageWidth="827" pageHeight="1169" math="0" shadow="0">
      <root>
        <mxCell id="WIyWlLk6GJQsqaUBKTNV-0" />
        <mxCell id="WIyWlLk6GJQsqaUBKTNV-1" parent="WIyWlLk6GJQsqaUBKTNV-0" />
        <mxCell id="aKxR3OzCBg5aodTqynG1-1" value="PC" style="rounded=0;whiteSpace=wrap;html=1;" parent="WIyWlLk6GJQsqaUBKTNV-1" vertex="1">
          <mxGeometry x="-170" y="265.35" width="100" height="40" as="geometry" />
        </mxCell>
        <mxCell id="aKxR3OzCBg5aodTqynG1-4" value="设备1" style="rounded=0;whiteSpace=wrap;html=1;" parent="WIyWlLk6GJQsqaUBKTNV-1" vertex="1">
          <mxGeometry x="770" y="209.5" width="120" height="30" as="geometry" />
        </mxCell>
        <mxCell id="aKxR3OzCBg5aodTqynG1-5" value="设备2" style="rounded=0;whiteSpace=wrap;html=1;" parent="WIyWlLk6GJQsqaUBKTNV-1" vertex="1">
          <mxGeometry x="770" y="255" width="120" height="30" as="geometry" />
        </mxCell>
        <mxCell id="aKxR3OzCBg5aodTqynG1-6" value="设备3" style="rounded=0;whiteSpace=wrap;html=1;" parent="WIyWlLk6GJQsqaUBKTNV-1" vertex="1">
          <mxGeometry x="770" y="298" width="120" height="30" as="geometry" />
        </mxCell>
        <mxCell id="aKxR3OzCBg5aodTqynG1-8" value="设备N" style="rounded=0;whiteSpace=wrap;html=1;" parent="WIyWlLk6GJQsqaUBKTNV-1" vertex="1">
          <mxGeometry x="770" y="340.5" width="120" height="30" as="geometry" />
        </mxCell>
        <mxCell id="aKxR3OzCBg5aodTqynG1-9" value="" style="endArrow=classic;startArrow=classic;html=1;rounded=0;exitX=1;exitY=0.5;exitDx=0;exitDy=0;entryX=0;entryY=0.5;entryDx=0;entryDy=0;" parent="WIyWlLk6GJQsqaUBKTNV-1" source="aKxR3OzCBg5aodTqynG1-1" target="sWdtE_8iskD-dm9GsHU8-0" edge="1">
          <mxGeometry width="50" height="50" relative="1" as="geometry">
            <mxPoint x="150" y="400" as="sourcePoint" />
            <mxPoint x="140" y="290" as="targetPoint" />
          </mxGeometry>
        </mxCell>
        <mxCell id="aKxR3OzCBg5aodTqynG1-14" value="" style="endArrow=classic;startArrow=classic;html=1;rounded=0;exitX=1;exitY=0.5;exitDx=0;exitDy=0;entryX=0;entryY=0.5;entryDx=0;entryDy=0;" parent="WIyWlLk6GJQsqaUBKTNV-1" target="aKxR3OzCBg5aodTqynG1-4" edge="1">
          <mxGeometry width="50" height="50" relative="1" as="geometry">
            <mxPoint x="650" y="290.0000000000001" as="sourcePoint" />
            <mxPoint x="700" y="340" as="targetPoint" />
            <Array as="points">
              <mxPoint x="740" y="290" />
              <mxPoint x="740" y="225" />
            </Array>
          </mxGeometry>
        </mxCell>
        <mxCell id="aKxR3OzCBg5aodTqynG1-15" value="" style="endArrow=classic;startArrow=classic;html=1;rounded=0;exitX=1;exitY=0.5;exitDx=0;exitDy=0;entryX=0;entryY=0.5;entryDx=0;entryDy=0;" parent="WIyWlLk6GJQsqaUBKTNV-1" target="aKxR3OzCBg5aodTqynG1-5" edge="1">
          <mxGeometry width="50" height="50" relative="1" as="geometry">
            <mxPoint x="650" y="290.0000000000001" as="sourcePoint" />
            <mxPoint x="760" y="225" as="targetPoint" />
            <Array as="points">
              <mxPoint x="750" y="290" />
              <mxPoint x="750" y="270" />
            </Array>
          </mxGeometry>
        </mxCell>
        <mxCell id="aKxR3OzCBg5aodTqynG1-16" value="" style="endArrow=classic;startArrow=classic;html=1;rounded=0;exitX=1;exitY=0.5;exitDx=0;exitDy=0;entryX=0;entryY=0.5;entryDx=0;entryDy=0;" parent="WIyWlLk6GJQsqaUBKTNV-1" target="aKxR3OzCBg5aodTqynG1-6" edge="1">
          <mxGeometry width="50" height="50" relative="1" as="geometry">
            <mxPoint x="650" y="290.0000000000001" as="sourcePoint" />
            <mxPoint x="760" y="280" as="targetPoint" />
            <Array as="points">
              <mxPoint x="750" y="290" />
              <mxPoint x="750" y="313" />
            </Array>
          </mxGeometry>
        </mxCell>
        <mxCell id="aKxR3OzCBg5aodTqynG1-19" value="" style="endArrow=classic;startArrow=classic;html=1;rounded=0;exitX=0;exitY=0.5;exitDx=0;exitDy=0;entryX=1;entryY=0.5;entryDx=0;entryDy=0;" parent="WIyWlLk6GJQsqaUBKTNV-1" source="aKxR3OzCBg5aodTqynG1-8" edge="1">
          <mxGeometry width="50" height="50" relative="1" as="geometry">
            <mxPoint x="690" y="415" as="sourcePoint" />
            <mxPoint x="650" y="290.0000000000001" as="targetPoint" />
            <Array as="points">
              <mxPoint x="740" y="356" />
              <mxPoint x="740" y="290" />
            </Array>
          </mxGeometry>
        </mxCell>
        <mxCell id="aKxR3OzCBg5aodTqynG1-21" value="任意通信方式" style="edgeLabel;html=1;align=center;verticalAlign=middle;resizable=0;points=[];" parent="aKxR3OzCBg5aodTqynG1-19" vertex="1" connectable="0">
          <mxGeometry x="0.76" y="-1" relative="1" as="geometry">
            <mxPoint x="26" y="1" as="offset" />
          </mxGeometry>
        </mxCell>
        <mxCell id="sWdtE_8iskD-dm9GsHU8-4" value="" style="group" vertex="1" connectable="0" parent="WIyWlLk6GJQsqaUBKTNV-1">
          <mxGeometry x="370" y="210" width="280" height="190.5" as="geometry" />
        </mxCell>
        <mxCell id="sWdtE_8iskD-dm9GsHU8-1" value="" style="rounded=0;whiteSpace=wrap;html=1;movable=1;resizable=1;rotatable=1;deletable=1;editable=1;locked=0;connectable=1;" vertex="1" parent="sWdtE_8iskD-dm9GsHU8-4">
          <mxGeometry width="280" height="150" as="geometry" />
        </mxCell>
        <mxCell id="sWdtE_8iskD-dm9GsHU8-3" value="数据通信程序" style="text;html=1;align=center;verticalAlign=middle;whiteSpace=wrap;rounded=0;movable=1;resizable=1;rotatable=1;deletable=1;editable=1;locked=0;connectable=1;" vertex="1" parent="sWdtE_8iskD-dm9GsHU8-4">
          <mxGeometry x="70" y="161.63636363636365" width="140" height="28.863636363636363" as="geometry" />
        </mxCell>
        <mxCell id="sWdtE_8iskD-dm9GsHU8-20" value="数据交互控制模块" style="rounded=0;whiteSpace=wrap;html=1;" vertex="1" parent="sWdtE_8iskD-dm9GsHU8-4">
          <mxGeometry x="15.68" y="26.56" width="54.32" height="96.88" as="geometry" />
        </mxCell>
        <mxCell id="sWdtE_8iskD-dm9GsHU8-25" value="数据管理模块" style="rounded=0;whiteSpace=wrap;html=1;" vertex="1" parent="sWdtE_8iskD-dm9GsHU8-4">
          <mxGeometry x="100" y="26.56" width="53.6" height="96.88" as="geometry" />
        </mxCell>
        <mxCell id="sWdtE_8iskD-dm9GsHU8-26" value="&lt;font style=&quot;font-size: 10px;&quot;&gt;设备1通信协议模块&lt;/font&gt;" style="rounded=0;whiteSpace=wrap;html=1;" vertex="1" parent="sWdtE_8iskD-dm9GsHU8-4">
          <mxGeometry x="200" y="8.28" width="67.2" height="33.44" as="geometry" />
        </mxCell>
        <mxCell id="sWdtE_8iskD-dm9GsHU8-28" value="&lt;font style=&quot;font-size: 10px;&quot;&gt;设备2通信&lt;/font&gt;&lt;div&gt;&lt;font style=&quot;font-size: 10px;&quot;&gt;协议模块&lt;/font&gt;&lt;/div&gt;" style="rounded=0;whiteSpace=wrap;html=1;" vertex="1" parent="sWdtE_8iskD-dm9GsHU8-4">
          <mxGeometry x="200" y="58.28" width="67.2" height="33.44" as="geometry" />
        </mxCell>
        <mxCell id="sWdtE_8iskD-dm9GsHU8-29" value="&lt;font style=&quot;font-size: 10px;&quot;&gt;设备N通信&lt;/font&gt;&lt;div&gt;&lt;font style=&quot;font-size: 10px;&quot;&gt;协议模块&lt;/font&gt;&lt;/div&gt;" style="rounded=0;whiteSpace=wrap;html=1;" vertex="1" parent="sWdtE_8iskD-dm9GsHU8-4">
          <mxGeometry x="200" y="108.28" width="67.2" height="33.44" as="geometry" />
        </mxCell>
        <mxCell id="sWdtE_8iskD-dm9GsHU8-32" value="" style="endArrow=classic;html=1;rounded=0;entryX=1;entryY=0.5;entryDx=0;entryDy=0;" edge="1" parent="sWdtE_8iskD-dm9GsHU8-4" source="sWdtE_8iskD-dm9GsHU8-25" target="sWdtE_8iskD-dm9GsHU8-20">
          <mxGeometry width="50" height="50" relative="1" as="geometry">
            <mxPoint x="10" y="260" as="sourcePoint" />
            <mxPoint x="60" y="210" as="targetPoint" />
          </mxGeometry>
        </mxCell>
        <mxCell id="sWdtE_8iskD-dm9GsHU8-33" value="" style="endArrow=classic;startArrow=classic;html=1;rounded=0;entryX=0;entryY=0.5;entryDx=0;entryDy=0;exitX=1;exitY=0.5;exitDx=0;exitDy=0;" edge="1" parent="sWdtE_8iskD-dm9GsHU8-4" source="sWdtE_8iskD-dm9GsHU8-25" target="sWdtE_8iskD-dm9GsHU8-26">
          <mxGeometry width="50" height="50" relative="1" as="geometry">
            <mxPoint x="150" y="290" as="sourcePoint" />
            <mxPoint x="200" y="240" as="targetPoint" />
            <Array as="points">
              <mxPoint x="170" y="75" />
              <mxPoint x="170" y="25" />
            </Array>
          </mxGeometry>
        </mxCell>
        <mxCell id="sWdtE_8iskD-dm9GsHU8-34" value="" style="endArrow=classic;startArrow=classic;html=1;rounded=0;entryX=0;entryY=0.5;entryDx=0;entryDy=0;exitX=1;exitY=0.5;exitDx=0;exitDy=0;" edge="1" parent="sWdtE_8iskD-dm9GsHU8-4" source="sWdtE_8iskD-dm9GsHU8-25" target="sWdtE_8iskD-dm9GsHU8-28">
          <mxGeometry width="50" height="50" relative="1" as="geometry">
            <mxPoint x="164" y="85" as="sourcePoint" />
            <mxPoint x="210" y="35" as="targetPoint" />
            <Array as="points">
              <mxPoint x="180" y="75" />
            </Array>
          </mxGeometry>
        </mxCell>
        <mxCell id="sWdtE_8iskD-dm9GsHU8-35" value="" style="endArrow=classic;startArrow=classic;html=1;rounded=0;entryX=0;entryY=0.5;entryDx=0;entryDy=0;exitX=1;exitY=0.5;exitDx=0;exitDy=0;" edge="1" parent="sWdtE_8iskD-dm9GsHU8-4" source="sWdtE_8iskD-dm9GsHU8-25" target="sWdtE_8iskD-dm9GsHU8-29">
          <mxGeometry width="50" height="50" relative="1" as="geometry">
            <mxPoint x="164" y="85" as="sourcePoint" />
            <mxPoint x="210" y="35" as="targetPoint" />
            <Array as="points">
              <mxPoint x="170" y="75" />
              <mxPoint x="170" y="125" />
            </Array>
          </mxGeometry>
        </mxCell>
        <mxCell id="sWdtE_8iskD-dm9GsHU8-5" value="" style="group" vertex="1" connectable="0" parent="WIyWlLk6GJQsqaUBKTNV-1">
          <mxGeometry x="-10" y="210" width="280" height="170.5" as="geometry" />
        </mxCell>
        <mxCell id="sWdtE_8iskD-dm9GsHU8-0" value="" style="rounded=0;whiteSpace=wrap;html=1;movable=1;resizable=1;rotatable=1;deletable=1;editable=1;locked=0;connectable=1;" vertex="1" parent="sWdtE_8iskD-dm9GsHU8-5">
          <mxGeometry width="280" height="150.69444444444446" as="geometry" />
        </mxCell>
        <mxCell id="sWdtE_8iskD-dm9GsHU8-2" value="业务逻辑程序" style="text;html=1;align=center;verticalAlign=middle;whiteSpace=wrap;rounded=0;movable=1;resizable=1;rotatable=1;deletable=1;editable=1;locked=0;connectable=1;" vertex="1" parent="sWdtE_8iskD-dm9GsHU8-5">
          <mxGeometry x="60" y="144.66666666666669" width="90" height="25.833333333333336" as="geometry" />
        </mxCell>
        <mxCell id="sWdtE_8iskD-dm9GsHU8-8" value="其他系统&lt;div&gt;交互模块&lt;/div&gt;" style="rounded=0;whiteSpace=wrap;html=1;" vertex="1" parent="sWdtE_8iskD-dm9GsHU8-5">
          <mxGeometry x="20" y="32.29166666666667" width="60" height="96.875" as="geometry" />
        </mxCell>
        <mxCell id="sWdtE_8iskD-dm9GsHU8-9" value="核心业务逻辑模块" style="rounded=0;whiteSpace=wrap;html=1;" vertex="1" parent="sWdtE_8iskD-dm9GsHU8-5">
          <mxGeometry x="110" y="32.29166666666667" width="60" height="96.875" as="geometry" />
        </mxCell>
        <mxCell id="sWdtE_8iskD-dm9GsHU8-10" value="数据交互控制模块" style="rounded=0;whiteSpace=wrap;html=1;" vertex="1" parent="sWdtE_8iskD-dm9GsHU8-5">
          <mxGeometry x="200" y="32.29166666666667" width="60" height="96.875" as="geometry" />
        </mxCell>
        <mxCell id="sWdtE_8iskD-dm9GsHU8-11" value="" style="endArrow=classic;startArrow=classic;html=1;rounded=0;exitX=0;exitY=0.5;exitDx=0;exitDy=0;" edge="1" parent="sWdtE_8iskD-dm9GsHU8-5" source="sWdtE_8iskD-dm9GsHU8-10" target="sWdtE_8iskD-dm9GsHU8-9">
          <mxGeometry width="50" height="50" relative="1" as="geometry">
            <mxPoint x="40" y="247.56944444444446" as="sourcePoint" />
            <mxPoint x="90" y="204.5138888888889" as="targetPoint" />
          </mxGeometry>
        </mxCell>
        <mxCell id="sWdtE_8iskD-dm9GsHU8-30" value="" style="group" vertex="1" connectable="0" parent="WIyWlLk6GJQsqaUBKTNV-1">
          <mxGeometry x="280" y="262" width="80" height="48.25" as="geometry" />
        </mxCell>
        <mxCell id="sWdtE_8iskD-dm9GsHU8-21" value="" style="endArrow=classic;startArrow=classic;html=1;rounded=0;exitX=1;exitY=0.5;exitDx=0;exitDy=0;" edge="1" parent="sWdtE_8iskD-dm9GsHU8-30" source="sWdtE_8iskD-dm9GsHU8-0" target="sWdtE_8iskD-dm9GsHU8-1">
          <mxGeometry width="50" height="50" relative="1" as="geometry">
            <mxPoint x="50" y="118" as="sourcePoint" />
            <mxPoint x="100" y="68" as="targetPoint" />
          </mxGeometry>
        </mxCell>
        <mxCell id="sWdtE_8iskD-dm9GsHU8-22" value="标准通信接口" style="text;html=1;align=center;verticalAlign=middle;whiteSpace=wrap;rounded=0;" vertex="1" parent="sWdtE_8iskD-dm9GsHU8-30">
          <mxGeometry width="80" height="30" as="geometry" />
        </mxCell>
        <mxCell id="sWdtE_8iskD-dm9GsHU8-24" value="TCP Socket" style="text;html=1;align=center;verticalAlign=middle;whiteSpace=wrap;rounded=0;" vertex="1" parent="sWdtE_8iskD-dm9GsHU8-30">
          <mxGeometry y="18.25" width="80" height="30" as="geometry" />
        </mxCell>
      </root>
    </mxGraphModel>
  </diagram>
</mxfile>
